HIERARCHY
ROOT Hips
{
    OFFSET 0.0 0.0 0.0
    CHANNELS 6 Xposition Yposition Zposition Zrotation Xrotation Yrotation
    JOINT LeftUpLeg
    {
        OFFSET 12.128121216241466 0.0 0.0
        CHANNELS 3 Zrotation Xrotation Yrotation
        JOINT LeftLeg
        {
            OFFSET 0.0 0.0 -58.795045361660314
            CHANNELS 3 Zrotation Xrotation Yrotation
            JOINT LeftFoot
            {
                OFFSET 0.0 0.0 -47.270034124777666
                CHANNELS 3 Zrotation Xrotation Yrotation
                JOINT LeftToeBase
                {
                    OFFSET 0.0 -12.512090634514 0.0
                    CHANNELS 3 Zrotation Xrotation Yrotation
                    End Site
                    {
                        OFFSET 0 0 0
                    }
                }
            }
        }
    }
    JOINT RightUpLeg
    {
        OFFSET -12.128121216241466 0.0 0.0
        CHANNELS 3 Zrotation Xrotation Yrotation
        JOINT RightLeg
        {
            OFFSET 0.0 0.0 -58.795045361660314
            CHANNELS 3 Zrotation Xrotation Yrotation
            JOINT RightFoot
            {
                OFFSET 0.0 0.0 -47.270034124777666
                CHANNELS 3 Zrotation Xrotation Yrotation
                JOINT RightToeBase
                {
                    OFFSET 0.0 -12.512090634514 0.0
                    CHANNELS 3 Zrotation Xrotation Yrotation
                    End Site
                    {
                        OFFSET 0 0 0
                    }
                }
            }
        }
    }
    JOINT Spine
    {
        OFFSET 0.0 0.0 12.021436877161818
        CHANNELS 3 Zrotation Xrotation Yrotation
        JOINT Spine1
        {
            OFFSET 0.0 0.0 11.93053059793795
            CHANNELS 3 Zrotation Xrotation Yrotation
            JOINT Spine2
            {
                OFFSET 0.0 0.0 11.93053059793795
                CHANNELS 3 Zrotation Xrotation Yrotation
                JOINT Spine3
                {
                    OFFSET 0.0 0.0 11.930530597937949
                    CHANNELS 3 Zrotation Xrotation Yrotation
                    JOINT Spine4
                    {
                        OFFSET 0.0 0.0 11.930530597937956
                        CHANNELS 3 Zrotation Xrotation Yrotation
                        JOINT RightShoulder
                        {
                            OFFSET -23.777666322458472 0.0 0.0
                            CHANNELS 3 Zrotation Xrotation Yrotation
                            JOINT RightArm
                            {
                                OFFSET -36.154266778286335 0.0 0.0
                                CHANNELS 3 Zrotation Xrotation Yrotation
                                JOINT RightForeArm
                                {
                                    OFFSET -34.455432547766705 0.0 0.0
                                    CHANNELS 3 Zrotation Xrotation Yrotation
                                    JOINT RightHand
                                    {
                                        OFFSET -10.862128255248827 0.0 0.0
                                        CHANNELS 3 Zrotation Xrotation Yrotation
                                        End Site
                                        {
                                            OFFSET 0 0 0
                                        }
                                    }
                                }
                            }
                        }
                        JOINT LeftShoulder
                        {
                            OFFSET 23.777666322458472 0.0 0.0
                            CHANNELS 3 Zrotation Xrotation Yrotation
                            JOINT LeftArm
                            {
                                OFFSET 36.154266778286335 0.0 0.0
                                CHANNELS 3 Zrotation Xrotation Yrotation
                                JOINT LeftForeArm
                                {
                                    OFFSET 34.455432547766705 0.0 0.0
                                    CHANNELS 3 Zrotation Xrotation Yrotation
                                    JOINT LeftHand
                                    {
                                        OFFSET 10.862128255248827 0.0 0.0
                                        CHANNELS 3 Zrotation Xrotation Yrotation
                                        End Site
                                        {
                                            OFFSET 0 0 0
                                        }
                                    }
                                }
                            }
                        }
                        JOINT Neck
                        {
                            OFFSET 0.0 0.0 11.930530571755307
                            CHANNELS 3 Zrotation Xrotation Yrotation
                            JOINT Head
                            {
                                OFFSET 0.0 0.0 25.551184569694453
                                CHANNELS 3 Zrotation Xrotation Yrotation
                                End Site
                                {
                                    OFFSET 0 0 0
                                }
                            }
                        }
                    }
                }
            }
        }
    }
}
MOTION
Frames: 7
Frame Time: 0.03333333333333333
52.918154382705694 -3.879735289514065 408.86400947570803 32.508869220789464 -75.65245579275086 33.43508910097868 -0.6496831966421431 -9.199542319919198 -11.748240587457667 21.300234019888183 -13.498803550150065 20.347759869254382 -106.24186872945342 -6.3611093629270335e-15 80.0482644626845 0.0 0.0 0.0 1.6301048957762634 -8.557045726694831 14.413280122558106 -19.896218118975018 -11.320696332849996 -31.008392283436404 108.23371519114578 -6.3611093629270335e-15 -80.31523915249721 0.0 0.0 0.0 0.22145366577414113 -13.961555381479156 -0.891866089954345 -7.951386703658792e-16 0.0 0.0 -7.951386703658792e-16 0.0 0.0 -7.951386703658792e-16 0.0 0.0 -7.951386703658792e-16 0.0 0.0 141.07081028887842 3.9904163751023267 -164.5657218290828 120.15116628490843 3.1331096637397294e-15 7.308089650934951e-15 8.348048778739337e-15 79.00449041547473 -1.51262039577446e-14 0.0 0.0 3.1805546814635168e-15 -155.07698984351785 5.16909098418492 168.27861114308843 -120.84080380572082 1.9773246762732784e-14 -1.6709247376167747e-14 5.505412756693155e-13 -89.32691197967672 5.502601468467413e-13 0.0 0.0 1.0933156717530838e-15 1.7833228188471975 -1.937935313810402e-14 3.482553994275962e-15 0.0 0.0 0.0
52.918154382705694 -3.879735289514065 408.86400947570803 32.508869220789464 -75.65245579275086 33.43508910097868 -0.6496831966421431 -9.199542319919198 -11.748240587457667 21.300234019888183 -13.498803550150065 20.347759869254382 -106.24186872945342 -6.3611093629270335e-15 80.0482644626845 0.0 0.0 0.0 1.6301048957762634 -8.557045726694831 14.413280122558106 -19.896218118975018 -11.320696332849996 -31.008392283436404 108.23371519114578 -6.3611093629270335e-15 -80.31523915249721 0.0 0.0 0.0 0.22145366577414113 -13.961555381479156 -0.891866089954345 -7.951386703658792e-16 0.0 0.0 -7.951386703658792e-16 0.0 0.0 -7.951386703658792e-16 0.0 0.0 -7.951386703658792e-16 0.0 0.0 141.07081028887842 3.9904163751023267 -164.5657218290828 120.15116628490843 3.1331096637397294e-15 7.308089650934951e-15 8.348048778739337e-15 79.00449041547473 -1.51262039577446e-14 0.0 0.0 3.1805546814635168e-15 -155.07698984351785 5.16909098418492 168.27861114308843 -120.84080380572082 1.9773246762732784e-14 -1.6709247376167747e-14 5.505412756693155e-13 -89.32691197967672 5.502601468467413e-13 0.0 0.0 1.0933156717530838e-15 1.7833228188471975 -1.937935313810402e-14 3.482553994275962e-15 0.0 0.0 0.0
52.918154382705694 -3.879735289514065 408.86400947570803 32.508869220789464 -75.65245579275086 33.43508910097868 -0.6496831966421431 -9.199542319919198 -11.748240587457667 21.300234019888183 -13.498803550150065 20.347759869254382 -106.24186872945342 -6.3611093629270335e-15 80.0482644626845 0.0 0.0 0.0 1.6301048957762634 -8.557045726694831 14.413280122558106 -19.896218118975018 -11.320696332849996 -31.008392283436404 108.23371519114578 -6.3611093629270335e-15 -80.31523915249721 0.0 0.0 0.0 0.22145366577414113 -13.961555381479156 -0.891866089954345 -7.951386703658792e-16 0.0 0.0 -7.951386703658792e-16 0.0 0.0 -7.951386703658792e-16 0.0 0.0 -7.951386703658792e-16 0.0 0.0 141.07081028887842 3.9904163751023267 -164.5657218290828 120.15116628490843 3.1331096637397294e-15 7.308089650934951e-15 8.348048778739337e-15 79.00449041547473 -1.51262039577446e-14 0.0 0.0 3.1805546814635168e-15 -155.07698984351785 5.16909098418492 168.27861114308843 -120.84080380572082 1.9773246762732784e-14 -1.6709247376167747e-14 5.505412756693155e-13 -89.32691197967672 5.502601468467413e-13 0.0 0.0 1.0933156717530838e-15 1.7833228188471975 -1.937935313810402e-14 3.482553994275962e-15 0.0 0.0 0.0
52.8765174150467 -4.117615315318108 408.8138803482056 33.360856016918255 -75.60189157618481 34.40886272526879 -0.7373651650030458 -9.1551364561201 -11.869434915260431 21.230253415217707 -13.543299087435788 20.264714596293494 -105.86961855754478 -6.3611093629270335e-15 80.05971667125908 0.0 0.0 0.0 1.7192904066348058 -8.365962519311333 14.414902777685203 -20.161550946745958 -11.346795642767129 -31.121495562724967 108.57852812953922 -9.54166404439055e-15 -80.40088472334693 6.361109362927033e-15 -3.1805546814635164e-15 -1.590277340731758e-15 0.1000093234058567 -13.870788419016293 -1.0262501149897256 7.951386703658791e-16 -4.969616689786745e-17 -7.951386703658791e-16 7.951386703658791e-16 -4.969616689786745e-17 -7.951386703658791e-16 7.951386703658791e-16 -4.969616689786745e-17 -7.951386703658791e-16 7.951386703658791e-16 -4.969616689786745e-17 -7.951386703658791e-16 141.4908864032084 4.105458178366558 -164.6271518590789 120.5639379812357 -8.677873438335933e-15 2.371062471226699e-15 -3.292922091448146e-15 77.06215996388877 6.6880259977849605e-15 0.0 0.0 0.0 -155.75783017865805 4.925640801485249 168.77760932181235 -121.41145346254125 -7.881984750493154e-15 -1.0482685267216543e-15 -1.7630181184447985e-14 -89.03236794082801 -1.5662243213424828e-14 0.0 0.0 -1.5405811738338909e-15 2.1971540076114815 -1.0242304123564695e-15 -1.5709289241035853e-15 0.0 0.0 0.0
52.869385600090034 -4.1434761643409725 408.80688056945803 33.49206811126184 -75.58960248245329 34.556597390023924 -0.7407648666492591 -9.157257701937361 -11.894033114166035 21.199985204499537 -13.533743117375272 20.265442343975657 -105.8094960197062 6.3611093629270335e-15 80.05737731541808 6.3611093629270335e-15 0.0 0.0 1.7244432250881048 -8.342479287957563 14.405751098564432 -20.183438831267157 -11.345368830956476 -31.098432268467434 108.65358573563789 9.54166404439055e-15 -80.41602465855408 0.0 0.0 0.0 0.08049662347905363 -13.85898751515153 -1.042858963903705 1.5902773407317584e-15 0.0 0.0 1.5902773407317584e-15 0.0 0.0 1.5902773407317584e-15 0.0 0.0 1.5902773407317584e-15 0.0 0.0 141.481490555376 4.107559834022233 -164.60690564890075 120.57705742319807 7.956694875996081e-16 1.1440016395514318e-14 2.0530800685341065e-14 76.81829152114052 -2.845463978971616e-14 0.0 0.0 0.0 -155.952929792398 4.88200313261359 168.91699468574834 -121.58226066007558 1.1880591693836439e-14 -4.8203083234645295e-15 2.5999910433905606e-13 -89.01197596122984 2.6168591087570554e-13 3.975693351829396e-16 -8.793328953146801e-33 -2.53450451179124e-15 2.3086765485893306 9.78815802760364e-15 -1.9722874059450945e-16 -7.951386703658792e-16 -5.517382872562698e-33 7.951386703658792e-16
52.864043712615974 -4.1615035235881805 408.8017553329468 33.588345347032295 -75.58123004745904 34.66419570877485 -0.7400376696696861 -9.158496013735624 -11.914669623863666 21.17459385967689 -13.5225689596313 20.270094302506887 -105.75984410445307 3.1805546814635168e-15 80.05163058542158 0.0 0.0 0.0 1.7236015383186714 -8.325111147666806 14.399127617356246 -20.192021913634623 -11.340491098650993 -31.07420541766483 108.72176759761015 -1.2722218725854067e-14 -80.42455482820868 6.3611093629270335e-15 0.0 0.0 0.06551091590683043 -13.850089939504265 -1.0545345940857718 0.0 0.0 0.0 0.0 0.0 0.0 0.0 0.0 0.0 0.0 0.0 0.0 141.45358149756458 4.099502272323701 -164.5807765616806 120.57699103047904 7.108684024349472e-15 1.3211586250770657e-14 1.621566907381245e-14 76.65574857129369 -1.2819177956767187e-14 0.0 0.0 0.0 -156.13662221432907 4.845959489298913 169.04441778035977 -121.75085438093521 -7.104841382532286e-15 3.175993355695103e-16 -1.431407825165073e-13 -88.9700480269326 -1.383614819315192e-13 -3.975693351829396e-16 4.482873583957193e-33 -1.2921003393445538e-15 2.4140705943477627 -1.28678870579545e-14 2.6570699846182556e-15 0.0 0.0 0.0
52.85969953536987 -4.177091641724109 408.79732933044437 33.664484033943424 -75.57600436529022 34.75017433124606 -0.7417884208438503 -9.156662193600887 -11.935750657584856 21.151106066550447 -13.511857468183786 20.275660338861705 -105.70571497568916 6.3611093629270335e-15 80.04218461123692 0.0 -3.1805546814635168e-15 0.0 1.7241469498067998 -8.3078598243172 14.395875637103318 -20.20130906763311 -11.336209443958298 -31.058158415501573 108.79289462026588 0.0 -80.43608558067135 6.3611093629270335e-15 -8.827812596100317e-32 -1.5902773407317584e-15 0.05215146243494954 -13.841664495401753 -1.065362169722417 1.5902773407317588e-15 -4.969616689786746e-17 6.896728590703373e-34 1.5902773407317588e-15 -4.969616689786746e-17 6.896728590703373e-34 1.5902773407317588e-15 -4.969616689786746e-17 6.896728590703373e-34 1.5902773407317588e-15 -4.969616689786746e-17 6.896728590703373e-34 141.42710104184448 4.091614886528584 -164.55645811179514 120.58146560762479 -3.152560438440789e-15 5.524950226843315e-15 -8.473384732812045e-15 76.55440578099463 1.0737947309890885e-14 0.0 0.0 0.0 -156.3318781362004 4.813318121034567 169.17501739059477 -121.93743305468391 -5.561866955963575e-15 3.0869642517007604e-15 -1.5085220185022476e-14 -88.88005480976497 -1.3679533186379847e-14 3.975693351829396e-16 -8.620910738379216e-34 -2.4848083448933725e-16 2.5292503323614532 3.7263046656542384e-15 -8.225988171568883e-17 7.951386703658792e-16 0.0 0.0
